<svg class="custom-icon" xmlns="http://www.w3.org/2000/svg" viewBox="0 0 100 100" style="width:50px;height:50px"><circle class="outer-shape" cx="50" cy="50" r="48" fill="#50ba00"/><path class="inner-shape" d="M31.08 49.65a.388.388 0 0 0-.383.38l-.473 5.83.473 6.132a.39.39 0 0 0 .382.379c.203 0 .366-.164.382-.379l.536-6.131-.536-5.833c-.015-.215-.179-.377-.382-.377zm4.593-5.92a.49.49 0 0 0-.48.48l-.415 11.654.417 6.093a.487.487 0 0 0 .478.476c.256 0 .467-.21.48-.48l.469-6.089-.47-11.654a.49.49 0 0 0-.479-.48zm-6.863 5.514c-.177 0-.32.143-.335.332l-.501 6.285.501 6.081c.014.188.158.33.335.33.173 0 .318-.142.333-.33l.57-6.08-.57-6.287c-.016-.189-.16-.33-.333-.33zm4.556-3.297a.44.44 0 0 0-.429.43l-.445 9.486.445 6.13c.012.24.2.429.43.429.228 0 .417-.19.43-.43v.002l.504-6.13-.504-9.486a.443.443 0 0 0-.43-.431zm-6.808 3.514c-.15 0-.269.119-.285.281l-.53 6.118.53 5.893c.015.164.135.282.285.282.148 0 .268-.118.285-.28l.603-5.895-.603-6.118c-.017-.164-.137-.28-.285-.28zm-2.233 1.01c-.12 0-.22.098-.237.232l-.559 5.156.559 5.04c.016.136.116.234.237.234.119 0 .216-.096.236-.232l.636-5.042-.635-5.156c-.02-.137-.117-.231-.237-.231zm-2.101 1.974c-.12 0-.213.093-.229.225l-.415 3.189.416 3.133c.016.133.109.225.228.225.116 0 .209-.091.228-.224l.492-3.134-.492-3.19c-.019-.131-.113-.224-.228-.224zm27.64-13.256a.781.781 0 0 0-.77.776l-.315 15.907.316 5.773c.005.422.35.77.77.77a.78.78 0 0 0 .769-.776v.007l.343-5.774-.343-15.908a.78.78 0 0 0-.77-.775zm21.566 9.153a6.93 6.93 0 0 0-2.705.548c-.557-6.364-5.84-11.357-12.285-11.357-1.577 0-3.114.314-4.472.844-.528.207-.668.42-.673.83V61.62a.852.852 0 0 0 .755.834c.018.002 19.254.012 19.379.012 3.86 0 6.991-3.16 6.991-7.062 0-3.9-3.13-7.061-6.99-7.061zm-23.951-7.783a.731.731 0 0 0-.722.726l-.271 14.579.271 5.863c.006.397.33.722.722.722.39 0 .714-.326.72-.726l.305-5.853-.305-14.586a.732.732 0 0 0-.72-.725zm-9.48 2.151a.534.534 0 0 0-.529.528l-.387 12.628.387 6.028c.01.295.24.526.527.526a.536.536 0 0 0 .528-.528l.436-6.026-.436-12.629a.536.536 0 0 0-.527-.527zm2.342-.476a.581.581 0 0 0-.576.579l-.358 13.053.359 5.992a.58.58 0 0 0 .575.575.583.583 0 0 0 .575-.576v-.001l.404-5.989-.404-13.054a.584.584 0 0 0-.575-.58zm4.74.702a.678.678 0 0 0-.674.677l-.3 12.256.3 5.897a.677.677 0 0 0 .673.673c.37 0 .664-.297.673-.677v.005l.338-5.897-.337-12.258a.679.679 0 0 0-.674-.676zm-2.38-.416a.629.629 0 0 0-.624.627l-.33 12.721.33 5.934a.63.63 0 0 0 .625.624c.34 0 .615-.276.624-.628v.006l.37-5.937-.37-12.72a.63.63 0 0 0-.625-.627z" fill="#f4efed"/></svg>