<svg class="custom-icon" xmlns="http://www.w3.org/2000/svg" viewBox="0 0 100 100" style="width:50px;height:50px"><circle class="outer-shape" cx="50" cy="50" r="48" fill="#50ba00"/><path class="inner-shape" d="M78.42 32.268a23.219 23.219 0 0 1-6.697 1.847 11.76 11.76 0 0 0 5.128-6.49 23.271 23.271 0 0 1-7.405 2.847 11.613 11.613 0 0 0-8.512-3.704c-6.44 0-11.662 5.25-11.662 11.729 0 .92.102 1.814.301 2.673-9.692-.49-18.284-5.159-24.036-12.256a11.735 11.735 0 0 0-1.579 5.898c0 4.07 2.059 7.66 5.188 9.763a11.548 11.548 0 0 1-5.281-1.467c-.002.05-.002.099-.002.148 0 5.684 4.02 10.424 9.355 11.502a11.596 11.596 0 0 1-5.266.202c1.484 4.66 5.79 8.051 10.893 8.146a23.313 23.313 0 0 1-14.483 5.02c-.941 0-1.87-.055-2.781-.163a32.87 32.87 0 0 0 17.875 5.27c21.45 0 33.18-17.873 33.18-33.374 0-.509-.012-1.014-.035-1.518a23.817 23.817 0 0 0 5.82-6.073z" fill="#f4efed"/></svg>