<svg class="custom-icon" xmlns="http://www.w3.org/2000/svg" viewBox="0 0 100 100" style="width:50px;height:50px"><circle class="outer-shape" cx="50" cy="50" r="48" fill="#d8bb00"/><path class="inner-shape" d="M77.425 36.288c-.58-3.104-3.165-5.42-6.133-5.706-7.088-.455-14.203-.824-21.304-.829-7.102-.004-14.19.358-21.279.805-2.98.289-5.563 2.593-6.141 5.709a93.267 93.267 0 0 0 0 27.092c.577 3.116 3.161 5.697 6.141 5.982 7.091.449 14.175.906 21.279.906 7.098 0 14.219-.4 21.304-.858 2.968-.288 5.553-2.946 6.133-6.048a92.326 92.326 0 0 0 0-27.052zM43.556 57.973V41.458l15.382 8.258-15.382 8.257z" fill="#dd4633"/></svg>